<svg xmlns="http://www.w3.org/2000/svg" viewBox="0 0 286.44 81.18"><defs><style>.cls-1,.cls-3{fill:#f49f31;}.cls-1{stroke:#f49f31;stroke-linecap:round;stroke-miterlimit:10;stroke-width:3px;}.cls-2{fill:#b26f12;}.cls-3{font-size:72px;font-family:Nunito-Light, Nunito;font-weight:300;}</style></defs><g id="Layer_3" data-name="Layer 3"><line class="cls-1" x1="9.39" y1="69.36" x2="245.25" y2="69.36"/></g><g id="Layer_2" data-name="Layer 2"><path class="cls-2" d="M330.51,305.65a1.69,1.69,0,0,1-.61,1.33,2.07,2.07,0,0,1-1.4.54,2.2,2.2,0,0,1-1.95-1.15l-9.72-15.55a12.94,12.94,0,0,0-4.28-4.54,12.68,12.68,0,0,0-6.09-1.22H296.6v20.09a2.32,2.32,0,0,1-.61,1.69,2.23,2.23,0,0,1-1.62.61,2.19,2.19,0,0,1-1.62-.61,2.28,2.28,0,0,1-.62-1.69V258.56a2.08,2.08,0,0,1,.69-1.58,2.32,2.32,0,0,1,1.69-.65h17.93q8,0,12.31,3.63t4.32,10.62q0,6.14-3.67,9.72T315,284.48a8.77,8.77,0,0,1,3.17,1.91,18.8,18.8,0,0,1,2.95,3.71l8.93,14.32A2.26,2.26,0,0,1,330.51,305.65Zm-18.36-24.41c5,0,12.53-3.57,12.53-10.73q0-5.25-3.1-7.81c-2.06-1.7-5.21-2.55-9.43-2.55H296.53v21.09Z" transform="translate(-282.75 -242.88)"/><path class="cls-2" d="M368.35,300.14a1.87,1.87,0,0,1,.46,1.26c0,1.06-.81,2.09-2.44,3.1a21.08,21.08,0,0,1-10.95,3.09q-8,0-12.6-4.82t-4.61-13.25a21.19,21.19,0,0,1,2.06-9.54c1.36-2.76,3-5.8,5.42-7.31s5.65-1.37,8.87-1.37q6.76,0,10.69,4.36t3.92,12a2.74,2.74,0,0,1-.57,1.91,2.48,2.48,0,0,1-1.87.61h-24c.14,4.42,1.3,7.77,3.46,10.08s5.2,3.46,9.14,3.46a14.16,14.16,0,0,0,5.18-.83,34.56,34.56,0,0,0,4.47-2.2,5.12,5.12,0,0,1,2.23-1.08A1.45,1.45,0,0,1,368.35,300.14Zm-21.86-22.07q-3,3.18-3.6,8.86h22.25q-.13-5.76-2.88-8.89a9.67,9.67,0,0,0-7.7-3.14A10.66,10.66,0,0,0,346.49,278.07Z" transform="translate(-282.75 -242.88)"/><path class="cls-2" d="M383.79,305.36A14.9,14.9,0,0,1,378.1,299a23.2,23.2,0,0,1,0-19,15.47,15.47,0,0,1,5.76-6.44,15.78,15.78,0,0,1,8.53-2.31,20.27,20.27,0,0,1,5.33.72,14.84,14.84,0,0,1,4.61,2.17,7.91,7.91,0,0,1,1.83,1.69,2.72,2.72,0,0,1,.54,1.62,1.88,1.88,0,0,1-.43,1.29,1.36,1.36,0,0,1-1.08.51,4.76,4.76,0,0,1-2.3-1.23,19,19,0,0,0-3.75-2.16,11.77,11.77,0,0,0-4.53-.79,10.77,10.77,0,0,0-8.79,3.85q-3.17,3.86-3.17,10.62T383.83,300a10.81,10.81,0,0,0,8.74,3.71,11.57,11.57,0,0,0,4.58-.8,27.71,27.71,0,0,0,4-2.16c.43-.29.85-.55,1.26-.79a2.12,2.12,0,0,1,1-.36,1.45,1.45,0,0,1,1.16.51,1.83,1.83,0,0,1,.43,1.22,2.36,2.36,0,0,1-.51,1.51,9.28,9.28,0,0,1-1.94,1.66,15.11,15.11,0,0,1-4.72,2.26,18.83,18.83,0,0,1-5.5.83A16,16,0,0,1,383.79,305.36Z" transform="translate(-282.75 -242.88)"/><path class="cls-2" d="M412.41,262.45a3,3,0,0,1-.9-2.23,3.07,3.07,0,0,1,.9-2.31,3.61,3.61,0,0,1,4.68,0,3.07,3.07,0,0,1,.9,2.31,3,3,0,0,1-.9,2.23,3.61,3.61,0,0,1-4.68,0Zm.72,44.42a2.14,2.14,0,0,1-.61-1.65V273.68a2.17,2.17,0,0,1,.61-1.66,2.29,2.29,0,0,1,1.62-.57,2.14,2.14,0,0,1,1.58.57,2.24,2.24,0,0,1,.58,1.66v31.54a2.2,2.2,0,0,1-.58,1.65,2.11,2.11,0,0,1-1.58.58A2.25,2.25,0,0,1,413.13,306.87Z" transform="translate(-282.75 -242.88)"/><path class="cls-2" d="M453.05,273.57a14.93,14.93,0,0,1,5.47,6.41,22.34,22.34,0,0,1,2,9.61,21.67,21.67,0,0,1-2,9.47,14.47,14.47,0,0,1-13.6,8.53,14.16,14.16,0,0,1-7.35-1.83,11.58,11.58,0,0,1-4.68-5.37v17.79a2.29,2.29,0,0,1-.57,1.62,2.12,2.12,0,0,1-1.59.61,2.23,2.23,0,0,1-1.62-.61,2.19,2.19,0,0,1-.61-1.62v-44.5a2.1,2.1,0,0,1,2.23-2.23,2.09,2.09,0,0,1,1.59.61,2.29,2.29,0,0,1,.57,1.62v2.55c1.06-2.35,2.85-3.56,4.91-4.78s4.28-.15,7.12-.15A14.71,14.71,0,0,1,453.05,273.57ZM452.87,300q3.06-3.71,3.06-10.41t-3.06-10.65a11.44,11.44,0,0,0-17-.08q-3,3.75-3,10.59T435.84,300a10.16,10.16,0,0,0,8.43,3.71A10.54,10.54,0,0,0,452.87,300Z" transform="translate(-282.75 -242.88)"/><path class="cls-2" d="M469.65,262.45a3,3,0,0,1-.9-2.23,3.07,3.07,0,0,1,.9-2.31,3.61,3.61,0,0,1,4.68,0,3.07,3.07,0,0,1,.9,2.31,3,3,0,0,1-.9,2.23,3.61,3.61,0,0,1-4.68,0Zm.72,44.42a2.14,2.14,0,0,1-.61-1.65V273.68a2.17,2.17,0,0,1,.61-1.66,2.29,2.29,0,0,1,1.62-.57,2.14,2.14,0,0,1,1.58.57,2.24,2.24,0,0,1,.58,1.66v31.54a2.2,2.2,0,0,1-.58,1.65,2.11,2.11,0,0,1-1.58.58A2.25,2.25,0,0,1,470.37,306.87Z" transform="translate(-282.75 -242.88)"/><path class="cls-2" d="M513.64,300.14a1.88,1.88,0,0,1,.47,1.26c0,1.06-.82,2.09-2.45,3.1a21.08,21.08,0,0,1-11,3.09q-8,0-12.59-4.82t-4.61-13.25a21.19,21.19,0,0,1,2.05-9.54c1.37-2.76,3-5.53,5.45-7.05s5.62-1.63,8.84-1.63q6.76,0,10.69,4.36t3.93,12a2.74,2.74,0,0,1-.58,1.91,2.46,2.46,0,0,1-1.87.61H488c.15,4.42,1.3,7.77,3.46,10.08s5.21,3.46,9.14,3.46a14.22,14.22,0,0,0,5.19-.83,34.48,34.48,0,0,0,4.46-2.2,5.17,5.17,0,0,1,2.23-1.08A1.42,1.42,0,0,1,513.64,300.14Zm-21.85-22.07q-3,3.18-3.6,8.86h22.24q-.14-5.76-2.88-8.89a9.67,9.67,0,0,0-7.7-3.14A10.62,10.62,0,0,0,491.79,278.07Z" transform="translate(-282.75 -242.88)"/><path class="cls-2" d="M524.22,306.87a2.14,2.14,0,0,1-.61-1.65v-47a2.17,2.17,0,0,1,.61-1.66,2.29,2.29,0,0,1,1.62-.57,2.2,2.2,0,0,1,1.55.57,2.17,2.17,0,0,1,.61,1.66v47a2.14,2.14,0,0,1-.61,1.65,2.16,2.16,0,0,1-1.55.58A2.25,2.25,0,0,1,524.22,306.87Z" transform="translate(-282.75 -242.88)"/><path class="cls-2" d="M567.1,271.45a2.16,2.16,0,0,1,1.44.57,1.8,1.8,0,0,1,.64,1.37,2.12,2.12,0,0,1-.21.94L548.59,319a1.93,1.93,0,0,1-1.87,1.22,2.09,2.09,0,0,1-1.4-.5,1.61,1.61,0,0,1-.62-1.3,2,2,0,0,1,.22-.86L550,306.44l-14.76-32.11a2,2,0,0,1-.21-.87,1.85,1.85,0,0,1,.75-1.47,2.54,2.54,0,0,1,1.62-.61,1.85,1.85,0,0,1,1.87,1.29l13,29.09,13-29A2,2,0,0,1,567.1,271.45Z" transform="translate(-282.75 -242.88)"/></g><g id="Layer_1" data-name="Layer 1"><text class="cls-3" transform="translate(0 61.38)">Recipiely</text></g></svg>